<svg width="181" height="181" viewBox="0 0 181 181" fill="none" xmlns="http://www.w3.org/2000/svg">
<g clip-path="url(#clip0_1_7)">
<path d="M181 90.5C181 40.5983 140.402 0 90.5 0C40.5983 0 0 40.5983 0 90.5C0 140.402 40.5983 181 90.5 181C101.61 181 112.253 178.976 122.094 175.299L122.057 175.513L127.228 173.211C127.647 173.024 128.054 172.813 128.471 172.62C129.153 172.303 129.831 171.983 130.504 171.651C131.21 171.301 131.907 170.942 132.604 170.574C133.21 170.255 133.813 169.929 134.411 169.597C135.162 169.178 135.907 168.749 136.649 168.309C137.153 168.01 137.65 167.706 138.145 167.398C138.963 166.891 139.774 166.372 140.577 165.838C140.957 165.585 141.334 165.325 141.708 165.066C142.242 164.698 142.788 164.348 143.316 163.971L144.592 163.051V163.015C166.677 146.495 181 120.139 181 90.5ZM135.059 139.994C136.507 145.663 138.169 153.075 138.486 159.959C138.296 160.091 138.112 160.23 137.922 160.36C137.053 160.951 136.169 161.515 135.279 162.073C134.564 162.523 133.843 162.957 133.116 163.386C132.166 163.944 131.213 164.493 130.242 165.012C130.076 165.099 129.904 165.181 129.738 165.271C129.747 165.181 129.759 165.09 129.768 165C130.492 158.665 131.457 150.269 135.059 139.994ZM144.182 155.669C143.331 147.627 141.222 139.629 139.841 134.447C139.548 133.349 139.292 132.383 139.092 131.59L138.486 129.159C144.366 120.63 147.817 110.47 147.817 99.55C147.817 78.7531 143.364 71.0244 135.282 56.9909C132.033 51.3497 127.991 44.3299 123.376 34.8787C122.646 33.3824 120.848 32.758 119.342 33.491C117.846 34.2211 117.225 36.028 117.958 37.5243C122.664 47.1595 126.76 54.2819 130.058 60.0015C137.865 73.5614 141.783 80.37 141.783 99.55C141.783 126.163 118.778 147.817 90.5 147.817C62.2218 147.817 39.2167 126.163 39.2167 99.55C39.2167 97.8818 37.8652 96.5333 36.2 96.5333C34.5348 96.5333 33.1833 97.8818 33.1833 99.55C33.1833 129.49 58.8944 153.85 90.5 153.85C105.209 153.85 118.597 148.529 128.754 139.871C125.463 149.88 124.489 158.067 123.771 164.306C123.599 165.793 123.436 167.111 123.261 168.351C113.182 172.611 102.111 174.967 90.5 174.967C43.9257 174.967 6.03333 137.074 6.03333 90.5C6.03333 43.9257 43.9257 6.03333 90.5 6.03333C137.074 6.03333 174.967 43.9257 174.967 90.5C174.967 116.706 162.969 140.163 144.182 155.669Z" fill="black"/>
<path d="M90.5 66.3667C73.8661 66.3667 60.3333 79.8994 60.3333 96.5333C60.3333 113.167 73.8661 126.7 90.5 126.7C107.134 126.7 120.667 113.167 120.667 96.5333C120.667 79.8994 107.134 66.3667 90.5 66.3667ZM90.5 120.667C77.1935 120.667 66.3667 109.84 66.3667 96.5333C66.3667 83.2268 77.1935 72.4 90.5 72.4C103.807 72.4 114.633 83.2268 114.633 96.5333C114.633 109.84 103.807 120.667 90.5 120.667Z" fill="black"/>
<path d="M90.5 84.4667C83.8452 84.4667 78.4333 89.8786 78.4333 96.5333C78.4333 103.188 83.8452 108.6 90.5 108.6C97.1548 108.6 102.567 103.188 102.567 96.5333C102.567 89.8786 97.1548 84.4667 90.5 84.4667ZM90.5 102.567C87.1726 102.567 84.4667 99.8607 84.4667 96.5333C84.4667 93.206 87.1726 90.5 90.5 90.5C93.8274 90.5 96.5333 93.206 96.5333 96.5333C96.5333 99.8607 93.8274 102.567 90.5 102.567Z" fill="black"/>
</g>
<defs>
<clipPath id="clip0_1_7">
<rect width="181" height="181" fill="white"/>
</clipPath>
</defs>
</svg>
